<svg version="1.1" id="Layer_1" xmlns="http://www.w3.org/2000/svg" xmlns:xlink="http://www.w3.org/1999/xlink" x="0px" y="0px"
	 width="100%" viewBox="0 0 549 549" enable-background="new 0 0 549 549" xml:space="preserve">
<path fill="#1C2737" opacity="1.000000" stroke="none" 
	d="
M307.000000,550.000000 
	C204.689835,550.000000 102.879669,550.000000 1.034752,550.000000 
	C1.034752,367.064819 1.034752,184.129608 1.034752,1.097204 
	C183.893509,1.097204 366.787079,1.097204 549.840332,1.097204 
	C549.840332,183.999893 549.840332,366.999939 549.840332,550.000000 
	C469.129547,550.000000 388.314789,550.000000 307.000000,550.000000 
M66.484619,318.300568 
	C68.484673,318.300568 70.519531,318.537964 72.477509,318.250916 
	C76.488739,317.662872 78.386276,319.122955 79.401375,323.172516 
	C80.974541,329.448395 83.281509,335.540314 85.278648,341.714264 
	C94.000168,341.714264 102.552780,341.714264 111.653877,341.714264 
	C99.128883,306.532257 86.759163,271.786407 74.372856,236.993973 
	C65.941513,236.993973 57.942223,237.222733 49.966404,236.889587 
	C46.413769,236.741196 45.188786,238.102661 44.070755,241.205643 
	C32.555618,273.164490 20.869152,305.061584 9.246053,336.981598 
	C8.692301,338.502350 8.284945,340.076385 7.742646,341.843140 
	C16.621258,341.843140 25.093632,341.843140 33.756973,341.843140 
	C35.894531,335.093658 38.122581,328.472565 40.051834,321.765533 
	C40.837910,319.032745 42.160110,318.141296 44.992832,318.230865 
	C51.819332,318.446747 58.657272,318.300659 66.484619,318.300568 
M421.505554,342.006287 
	C424.336212,342.006256 427.216156,341.673523 429.986084,342.083649 
	C434.214935,342.709839 435.833374,340.849091 436.763733,336.993378 
	C437.970520,331.992218 439.915741,327.173615 441.274658,322.203033 
	C442.042694,319.393677 443.209198,318.129120 446.411957,318.208893 
	C456.063416,318.449280 465.726654,318.401337 475.381073,318.229645 
	C478.225098,318.179047 479.501556,319.127808 480.290100,321.836853 
	C482.234192,328.515900 484.490204,335.104187 486.629425,341.755676 
	C495.464447,341.755676 504.020935,341.755676 513.004700,341.755676 
	C500.508209,306.652893 488.139008,271.907837 475.710449,236.995987 
	C467.490448,236.995987 459.502960,237.167923 451.529114,236.913864 
	C448.202332,236.807861 446.640778,237.718399 445.458374,241.008514 
	C433.868896,273.258331 422.069702,305.432770 410.346466,337.634583 
	C409.868134,338.948395 409.551727,340.321198 409.060913,342.006287 
	C413.211731,342.006287 416.866455,342.006287 421.505554,342.006287 
M147.500000,236.998123 
	C133.064331,236.998123 118.628654,236.998123 104.133537,236.998123 
	C104.133537,243.650879 104.133537,249.729294 104.133537,256.429871 
	C114.084770,256.429871 123.793938,256.429871 133.924103,256.429871 
	C133.924103,285.271393 133.924103,313.489990 133.924103,341.606506 
	C142.257278,341.606506 150.136230,341.606506 158.448792,341.606506 
	C158.448792,312.985443 158.448792,284.760406 158.448792,256.066376 
	C168.462280,256.066376 178.032913,256.066376 187.638062,256.066376 
	C187.638062,249.509872 187.638062,243.433990 187.638062,236.998154 
	C174.417145,236.998154 161.458572,236.998154 147.500000,236.998123 
M207.503555,256.289001 
	C213.108215,256.289001 218.712875,256.289001 224.742126,256.289001 
	C224.742126,285.108246 224.742126,313.336243 224.742126,341.693665 
	C233.074463,341.693665 240.967194,341.693665 249.286636,341.693665 
	C249.286636,313.155243 249.286636,284.923767 249.286636,256.239502 
	C259.289215,256.239502 268.871185,256.239502 278.548431,256.239502 
	C278.548431,249.571854 278.548431,243.368103 278.548431,237.371521 
	C250.462494,237.371521 222.733215,237.371521 195.221680,237.371521 
	C195.221680,243.838303 195.221680,249.928284 195.221680,256.289032 
	C199.210831,256.289032 202.859741,256.289032 207.503555,256.289001 
M340.099670,240.710114 
	C340.099670,274.426758 340.099670,308.143433 340.099670,341.612579 
	C361.563354,341.612579 382.285645,341.612579 402.773376,341.612579 
	C402.773376,335.131561 402.773376,329.045563 402.773376,322.538208 
	C389.839508,322.538208 377.256714,322.538208 364.254364,322.538208 
	C364.254364,293.878387 364.254364,265.656494 364.254364,237.003036 
	C356.705231,237.003036 349.578796,236.915024 342.461060,237.123901 
	C341.649231,237.147720 340.886230,238.835419 340.099670,240.710114 
M316.841705,282.500061 
	C316.841705,267.417847 316.841705,252.335632 316.841705,237.208710 
	C308.439301,237.208710 300.677521,237.208710 292.687439,237.208710 
	C292.687439,272.150055 292.687439,306.868896 292.687439,341.684509 
	C300.805359,341.684509 308.679504,341.684509 316.841705,341.684509 
	C316.841705,322.069794 316.841705,302.784943 316.841705,282.500061 
M540.580811,342.382812 
	C548.011658,337.230652 549.327454,328.761444 543.341431,323.507416 
	C538.646729,319.386841 533.118896,318.927155 527.460327,321.083496 
	C522.732178,322.885315 519.916687,326.291473 519.798706,331.648193 
	C519.681641,336.962921 522.122009,341.172943 526.869263,342.527405 
	C530.905090,343.678864 535.528687,342.770111 540.580811,342.382812 
z"/>
<path fill="#FCFCFC" opacity="1.000000" stroke="none" 
	d="
M65.987610,318.300537 
	C58.657272,318.300659 51.819332,318.446747 44.992832,318.230865 
	C42.160110,318.141296 40.837910,319.032745 40.051834,321.765533 
	C38.122581,328.472565 35.894531,335.093658 33.756973,341.843140 
	C25.093632,341.843140 16.621258,341.843140 7.742646,341.843140 
	C8.284945,340.076385 8.692301,338.502350 9.246053,336.981598 
	C20.869152,305.061584 32.555618,273.164490 44.070755,241.205643 
	C45.188786,238.102661 46.413769,236.741196 49.966404,236.889587 
	C57.942223,237.222733 65.941513,236.993973 74.372856,236.993973 
	C86.759163,271.786407 99.128883,306.532257 111.653877,341.714264 
	C102.552780,341.714264 94.000168,341.714264 85.278648,341.714264 
	C83.281509,335.540314 80.974541,329.448395 79.401375,323.172516 
	C78.386276,319.122955 76.488739,317.662872 72.477509,318.250916 
	C70.519531,318.537964 68.484673,318.300568 65.987610,318.300537 
M67.266930,300.004425 
	C68.755371,300.004425 70.243813,300.004425 72.197388,300.004425 
	C67.926735,286.477203 63.773441,273.321716 59.338280,259.273407 
	C54.864941,273.272186 50.683929,286.356171 46.322620,300.004395 
	C53.409786,300.004395 59.863251,300.004395 67.266930,300.004425 
z"/>
<path fill="#FCFCFC" opacity="1.000000" stroke="none" 
	d="
M421.013367,342.006287 
	C416.866455,342.006287 413.211731,342.006287 409.060913,342.006287 
	C409.551727,340.321198 409.868134,338.948395 410.346466,337.634583 
	C422.069702,305.432770 433.868896,273.258331 445.458374,241.008514 
	C446.640778,237.718399 448.202332,236.807861 451.529114,236.913864 
	C459.502960,237.167923 467.490448,236.995987 475.710449,236.995987 
	C488.139008,271.907837 500.508209,306.652893 513.004700,341.755676 
	C504.020935,341.755676 495.464447,341.755676 486.629425,341.755676 
	C484.490204,335.104187 482.234192,328.515900 480.290100,321.836853 
	C479.501556,319.127808 478.225098,318.179047 475.381073,318.229645 
	C465.726654,318.401337 456.063416,318.449280 446.411957,318.208893 
	C443.209198,318.129120 442.042694,319.393677 441.274658,322.203033 
	C439.915741,327.173615 437.970520,331.992218 436.763733,336.993378 
	C435.833374,340.849091 434.214935,342.709839 429.986084,342.083649 
	C427.216156,341.673523 424.336212,342.006256 421.013367,342.006287 
M470.168976,289.296204 
	C467.073700,279.717468 463.978424,270.138702 460.571686,259.596191 
	C456.059601,273.711334 451.923096,286.651520 447.720001,299.799988 
	C456.450653,299.799988 464.709412,299.799988 473.495667,299.799988 
	C472.392151,296.332855 471.394409,293.197998 470.168976,289.296204 
z"/>
<path fill="#FEFEFE" opacity="1.000000" stroke="none" 
	d="
M148.000000,236.998138 
	C161.458572,236.998154 174.417145,236.998154 187.638062,236.998154 
	C187.638062,243.433990 187.638062,249.509872 187.638062,256.066376 
	C178.032913,256.066376 168.462280,256.066376 158.448792,256.066376 
	C158.448792,284.760406 158.448792,312.985443 158.448792,341.606506 
	C150.136230,341.606506 142.257278,341.606506 133.924103,341.606506 
	C133.924103,313.489990 133.924103,285.271393 133.924103,256.429871 
	C123.793938,256.429871 114.084770,256.429871 104.133537,256.429871 
	C104.133537,249.729294 104.133537,243.650879 104.133537,236.998123 
	C118.628654,236.998123 133.064331,236.998123 148.000000,236.998138 
z"/>
<path fill="#FEFEFE" opacity="1.000000" stroke="none" 
	d="
M207.006104,256.289001 
	C202.859741,256.289032 199.210831,256.289032 195.221680,256.289032 
	C195.221680,249.928284 195.221680,243.838303 195.221680,237.371521 
	C222.733215,237.371521 250.462494,237.371521 278.548431,237.371521 
	C278.548431,243.368103 278.548431,249.571854 278.548431,256.239502 
	C268.871185,256.239502 259.289215,256.239502 249.286636,256.239502 
	C249.286636,284.923767 249.286636,313.155243 249.286636,341.693665 
	C240.967194,341.693665 233.074463,341.693665 224.742126,341.693665 
	C224.742126,313.336243 224.742126,285.108246 224.742126,256.289001 
	C218.712875,256.289001 213.108215,256.289001 207.006104,256.289001 
z"/>
<path fill="#FDFDFE" opacity="1.000000" stroke="none" 
	d="
M340.100128,240.230865 
	C340.886230,238.835419 341.649231,237.147720 342.461060,237.123901 
	C349.578796,236.915024 356.705231,237.003036 364.254364,237.003036 
	C364.254364,265.656494 364.254364,293.878387 364.254364,322.538208 
	C377.256714,322.538208 389.839508,322.538208 402.773376,322.538208 
	C402.773376,329.045563 402.773376,335.131561 402.773376,341.612579 
	C382.285645,341.612579 361.563354,341.612579 340.099670,341.612579 
	C340.099670,308.143433 340.099670,274.426758 340.100128,240.230865 
z"/>
<path fill="#F8F8F9" opacity="1.000000" stroke="none" 
	d="
M316.841705,283.000092 
	C316.841705,302.784943 316.841705,322.069794 316.841705,341.684509 
	C308.679504,341.684509 300.805359,341.684509 292.687439,341.684509 
	C292.687439,306.868896 292.687439,272.150055 292.687439,237.208710 
	C300.677521,237.208710 308.439301,237.208710 316.841705,237.208710 
	C316.841705,252.335632 316.841705,267.417847 316.841705,283.000092 
z"/>
<path fill="#FB8705" opacity="1.000000" stroke="none" 
	d="
M540.236572,342.577850 
	C535.528687,342.770111 530.905090,343.678864 526.869263,342.527405 
	C522.122009,341.172943 519.681641,336.962921 519.798706,331.648193 
	C519.916687,326.291473 522.732178,322.885315 527.460327,321.083496 
	C533.118896,318.927155 538.646729,319.386841 543.341431,323.507416 
	C549.327454,328.761444 548.011658,337.230652 540.236572,342.577850 
z"/>
<path fill="#222C3B" opacity="1.000000" stroke="none" 
	d="
M66.791824,300.004395 
	C59.863251,300.004395 53.409786,300.004395 46.322620,300.004395 
	C50.683929,286.356171 54.864941,273.272186 59.338280,259.273407 
	C63.773441,273.321716 67.926735,286.477203 72.197388,300.004425 
	C70.243813,300.004425 68.755371,300.004425 66.791824,300.004395 
z"/>
<path fill="#212B3A" opacity="1.000000" stroke="none" 
	d="
M470.282837,289.679657 
	C471.394409,293.197998 472.392151,296.332855 473.495667,299.799988 
	C464.709412,299.799988 456.450653,299.799988 447.720001,299.799988 
	C451.923096,286.651520 456.059601,273.711334 460.571686,259.596191 
	C463.978424,270.138702 467.073700,279.717468 470.282837,289.679657 
z"/>
</svg>